<?xml version="1.0" encoding="utf-8"?>
<!-- Generator: Adobe Illustrator 19.0.0, SVG Export Plug-In . SVG Version: 6.00 Build 0)  -->
<svg version="1.1" id="Camada_1" xmlns="http://www.w3.org/2000/svg" xmlns:xlink="http://www.w3.org/1999/xlink" x="0px" y="0px"
	 viewBox="0 0 188.5 262" style="enable-background:new 0 0 188.5 262;" xml:space="preserve">
<style type="text/css">
	.st0{fill-rule:evenodd;clip-rule:evenodd;fill:#37110C;}
	.st1{fill-rule:evenodd;clip-rule:evenodd;fill:#74643A;}
</style>
<g>
	<ellipse class="st0" cx="96.1" cy="130.2" rx="90" ry="127.1"/>
	<path class="st1" d="M96.1,8.7c23.9,0,45.6,13.7,61.2,35.7c15.6,22,25.2,52.3,25.2,85.7c0,33.5-9.6,63.8-25.2,85.7
		c-15.6,22.1-37.3,35.7-61.2,35.7c-23.9,0-45.6-13.7-61.2-35.7c-15.6-22-25.2-52.3-25.2-85.7c0-33.5,9.6-63.8,25.2-85.7
		C50.5,22.3,72.2,8.7,96.1,8.7L96.1,8.7z M155.4,45.8c-15.2-21.4-36.2-34.7-59.3-34.7C73,11.1,52,24.4,36.9,45.8
		c-15.3,21.6-24.7,51.4-24.7,84.3c0,33,9.5,62.8,24.7,84.3C52,235.9,73,249.2,96.1,249.2c23.1,0,44.1-13.3,59.3-34.7
		c15.3-21.6,24.7-51.4,24.7-84.3C180.1,97.2,170.7,67.4,155.4,45.8z"/>
	<path class="st1" d="M55.3,222.8c0.2,0,0.5,0,0.7-0.1c0.5,0,1-0.1,1.4-0.1c0.6,0,1.2,0,1.7,0.1c0.3,0,0.5,0,0.8,0.1
		c-0.1-2-0.2-4.1-0.2-6.1c0-1.8,0-3.6,0-5.4c0-1.6,0-3.2,0-4.8c0-1.6,0-3.1,0-4.7c0-1,0-2,0.1-3l0-0.7h0.7c1,0,2.1,0,3.1,0.1
		c0.7,0,1.4,0.1,2,0.2c0,0,0-0.1,0-0.1c0-0.3-0.1-0.7-0.1-1c0-0.4,0-0.8,0.1-1.2c-1,0.1-2,0.1-3,0.2c-1.7,0.1-3.5,0.1-5.2,0.1
		c-1.8,0-3.6,0-5.4-0.1c-0.9,0-1.9-0.1-2.8-0.2c0,0.3,0.1,0.7,0.1,1c0,0.4,0,0.9-0.1,1.3c1.8-0.2,3.6-0.3,5.4-0.3h0.7l0,0.7
		c0,5.2,0,10.3,0,15.5c0,1.6,0,3.2,0,4.8c0,0.9-0.1,1.8-0.1,2.6C55.4,222,55.4,222.4,55.3,222.8L55.3,222.8z M66.5,228.1
		c0,0.1,0,0.2,0,0.3c0,0.2,0,0.4,0,0.6c0.6,0,1.3-0.1,1.9-0.2c0.9-0.2,1.8-0.6,2.6-1.1c0.8-0.5,1.5-1.1,2-1.9
		c0.5-0.7,0.9-1.5,1.1-2.3c0.2-0.8,0.4-1.7,0.4-2.6c0.1-1.1,0.1-2.2,0.1-3.3v-10c0-3.9,0.1-7.7,0.4-11.6c-0.8,0.1-1.5,0.2-2.3,0.2
		c-0.8,0-1.7,0-2.5-0.1c0,0.5,0,0.9,0.1,1.4c0.1,1.8,0.2,3.6,0.2,5.4l0,18.2c0,1.3-0.1,2.7-0.5,4c-0.3,1-0.8,2-1.8,2.5
		C67.7,227.9,67.1,228.1,66.5,228.1L66.5,228.1z M80.9,222.8c0.5,0,0.9-0.1,1.4-0.1c0.7,0,1.3-0.1,2-0.1c0.3,0,0.5,0,0.8,0
		c0.6,0,1.1,0.1,1.7,0.1c0.7,0,1.3,0.1,2,0.1c0.3,0,0.6,0,1,0c1.8,0,3.5-0.3,5.1-1.1c1.5-0.7,2.7-1.7,3.7-3c1-1.3,1.8-2.8,2.2-4.5
		c0.5-1.8,0.8-3.6,0.8-5.5c0-1.9-0.2-3.8-0.8-5.6c-0.5-1.5-1.2-2.9-2.2-4c-0.9-1-2-1.9-3.3-2.4c-1.3-0.6-2.8-0.8-4.2-0.8
		c-1.3,0-2.5,0.1-3.8,0.1c-1.3,0.1-2.6,0.1-3.9,0.1c-0.8,0-1.6,0-2.3-0.1c0.2,2.3,0.3,4.7,0.3,7.1v12.3
		C81.2,217.9,81,220.4,80.9,222.8L80.9,222.8z M85.3,203.7c0-1.1,0-2.2,0.1-3.3c0-0.7,0-1.4,0-2.1v-0.6l0.6-0.1c0.3,0,0.6-0.1,1-0.1
		c0.6,0,1.2,0,1.8,0c0.9,0,1.9,0.1,2.8,0.4c1,0.3,1.9,1,2.6,1.7c0.6,0.6,1,1.3,1.4,2.1c0.4,0.8,0.6,1.6,0.8,2.4
		c0.2,0.8,0.3,1.6,0.4,2.4c0.1,0.7,0.1,1.5,0.1,2.2c0,0.7,0,1.3-0.1,2c-0.1,0.8-0.2,1.7-0.3,2.5c-0.2,0.9-0.4,1.9-0.7,2.8
		c-0.3,0.9-0.7,1.8-1.3,2.5c-0.7,1-1.7,1.7-2.8,2.2c-1.1,0.4-2.2,0.6-3.3,0.6c-0.8,0-1.6-0.1-2.3-0.2l-0.5-0.1l0-0.5
		c0-1-0.1-2.1-0.1-3.1V203.7L85.3,203.7z M103.3,223.6c0.2,0,0.4,0,0.5,0c0.3,0,0.6,0,1,0l8.8-29.4c-0.2,0-0.4,0-0.5,0
		c-0.3,0-0.6,0-1,0L103.3,223.6L103.3,223.6z M116.3,196.1c0.1,1.1,0.1,2.3,0.1,3.4c0,2.8,0,5.5,0,8.3c0,3.4,0,6.9,0,10.3
		c0,1,0,2-0.1,3c0,0.5,0,1.1-0.1,1.6c0.2,0,0.5,0,0.7-0.1c0.5,0,1-0.1,1.5-0.1c0.7,0,1.5,0,2.2,0.1c0-0.7-0.1-1.4-0.1-2.1l0-0.8
		c0-1.5,0-2.9-0.1-4.4c0-1.6,0-3.1,0-4.7c0-0.4,0.2-0.9,0.7-0.9c0.3,0,0.5,0.1,0.7,0.3l0,0.1l4.5,8.7c0.4,0.8,0.9,1.6,1.2,2.5
		c0.2,0.4,0.4,0.9,0.5,1.3c0.4,0,0.9-0.1,1.3-0.1c0.6-0.1,1.2-0.1,1.8-0.1c0.7,0,1.5,0,2.2,0.1c-0.1-0.2-0.3-0.4-0.4-0.6
		c-0.4-0.7-0.9-1.4-1.2-2.1l-5.6-10.8l0.9-0.2c0.5-0.1,1-0.3,1.5-0.5c0.6-0.3,1.1-0.7,1.5-1.2c0.5-0.6,0.9-1.2,1.2-2
		c0.3-0.9,0.5-1.8,0.5-2.8c0-1.2-0.2-2.6-0.8-3.7c-0.4-0.8-1-1.5-1.8-1.9c-0.6-0.3-1.3-0.6-2.1-0.8c-0.6-0.1-1.2-0.2-1.9-0.2
		c-1,0-2,0.1-3,0.1c-1,0.1-2.1,0.1-3.2,0.1C118.2,196.3,117.2,196.2,116.3,196.1L116.3,196.1z M121.2,197.5c0.4-0.1,0.9-0.1,1.4-0.1
		c0.6,0,1.2,0,1.7,0.1c0.6,0.1,1.1,0.4,1.6,0.7c0.6,0.5,1,1.1,1.2,1.8c0.3,0.9,0.4,1.9,0.4,2.9c0,1.1-0.1,2.3-0.6,3.3
		c-0.3,0.8-0.8,1.5-1.5,1.9c-0.5,0.3-1.1,0.6-1.7,0.7c-0.5,0.1-1,0.1-1.6,0.1c-0.3,0-0.7,0-1,0h-0.7l0.1-11.5L121.2,197.5
		L121.2,197.5z M134.8,228.1c0,0.1,0,0.2,0,0.3c0,0.2,0,0.4,0,0.6c0.6,0,1.3-0.1,1.9-0.2c0.9-0.2,1.8-0.6,2.6-1.1
		c0.8-0.5,1.5-1.1,2-1.9c0.5-0.7,0.9-1.5,1.1-2.3c0.2-0.8,0.4-1.7,0.4-2.6c0.1-1.1,0.1-2.2,0.1-3.3v-10c0-3.9,0.1-7.7,0.4-11.6
		c-0.8,0.1-1.5,0.2-2.3,0.2c-0.8,0-1.7,0-2.5-0.1c0,0.5,0,0.9,0.1,1.4c0.1,1.8,0.2,3.6,0.2,5.4l0,18.2c0,1.3-0.1,2.7-0.5,4
		c-0.3,1-0.8,2-1.8,2.5C135.9,227.9,135.4,228.1,134.8,228.1z"/>
	<path class="st1" d="M49.2,110.1l5.1-3.8l-1.8-5.7c-1.2-0.7-2.8-1.4-4.4-1.8l-1.7-0.4l-2.4-0.4c-0.8,0.5-2,1.2-2.7,1.8l-2.3,2.1
		c0.5,1.2,0.9,2.1,1.3,3.3l0.8,2.5c1.4,0.1,2.7,0.3,4.1,0.7c0.7,0.2,1.5,0.5,2.2,0.8L49.2,110.1L49.2,110.1z M154.4,110.1l5.2-3.8
		l-1.6-5.7c-1.2-0.7-2.7-1.4-4.3-1.8l-1.7-0.4l-2.3-0.4c-0.8,0.5-2,1.2-2.7,1.8l-2.4,2.1c0.4,1.2,0.9,2.1,1.2,3.3l0.7,2.5
		c1.4,0.1,2.7,0.3,4.1,0.7c0.7,0.2,1.5,0.5,2.1,0.8L154.4,110.1L154.4,110.1z M122.2,133.2c-0.6-0.8-0.5-1.9,0.3-2.6
		c0.8-0.6,1.9-0.5,2.6,0.2c0.2,0.2,0.3,0.4,0.5,0.6c4,4.2,12.6,6.4,21.7,6.5c9.2,0.1,18.7-2.1,24.3-6.6c0.3-0.3,0.7-0.6,1-0.9
		c0.7-0.7,1.9-0.7,2.6,0c0.7,0.7,0.6,1.9-0.1,2.6c-0.4,0.3-0.8,0.7-1.2,1c-6.3,5.1-16.7,7.6-26.6,7.5c-10-0.1-19.6-2.7-24.3-7.6
		C122.7,133.7,122.4,133.5,122.2,133.2L122.2,133.2z M132.8,104.1c-0.3,0-0.6,0-0.9-0.1c-0.9-0.3-1.4-1.3-1.1-2.3l15.6-43.1
		c-34.2-2.9-68.5-3.1-102.7,0l19,42.9c0.4,0.9,0,2-0.9,2.4c-0.3,0.1-0.6,0.2-1,0.1c1.9,3,3.1,6.6,3.1,10.4
		c0.1,10.9-8.7,19.8-19.7,19.9c-10.9,0.1-19.9-8.7-20-19.5l0,0c0-4,1.1-7.7,3.2-10.8c-0.3,0-0.6,0-0.9-0.1c-1-0.3-1.5-1.3-1.2-2.3
		l14.2-42.6c-0.9,0.1-1.8,0.2-2.8,0.3c1-0.4,2-0.8,3-1.2L40,58c0.3-1,1.3-1.5,2.3-1.2c0.2,0.1,0.4,0.2,0.6,0.3
		c34.9-12.1,69.7-11.3,104.6-0.1c0.5-0.3,1.1-0.4,1.6-0.2c0.5,0.2,0.9,0.5,1.1,1l0,0l0.1,0.2c1.3,0.4,2.7,0.9,4,1.4
		c-1.2-0.1-2.4-0.2-3.5-0.3l17.6,42.5c0.4,0.9-0.1,2-1,2.4c-0.3,0.1-0.7,0.2-1,0.1c1.9,3,2.9,6.6,2.8,10.4
		c-0.2,10.9-9.3,19.8-20.3,19.9c-10.9,0.1-19.6-8.7-19.4-19.5l0,0C129.5,110.9,130.7,107.2,132.8,104.1L132.8,104.1z M164.1,101.3
		c-3.5-3.9-8.7-6.3-14.5-6.2c-5.9,0-11.2,2.6-14.9,6.7l13.8-38.1L164.1,101.3L164.1,101.3z M148.5,133.8c-3.4,0-6.5-0.9-9.2-2.5
		l-0.4-0.8c-0.3-0.6-0.4-1.4-0.7-2l-1.4-1.3c-0.7-0.7-2.7-3.4-3.2-4.4c-0.2-0.4-0.4-0.8-0.5-1.2l-2.7-2.3c-0.3-1.4-0.5-2.9-0.4-4.4
		l0,0c0-1.5,0.2-2.9,0.6-4.3l0,0.1l2.5-1.7l1.9-3.2l1.9-2.7l1.5-3.7c2.8-2,6.1-3.2,9.7-3.6l1.9,2c0.5,0.1,1,0.1,1.5,0.2
		c0.8,0.2,1.5,0.3,2.2,0.5c0.9,0.3,1.7,0.5,2.6,0.9l2,0.9l3.7-0.1c2.2,1.9,4,4.3,5.1,7l-1.1,3c0.1,1,0.3,1.9,0.5,2.9
		c0,0.3,0.1,0.8,0.1,1.1c0.1,1.3,0,2.9-0.2,4.4l1,1.8c-2.4,7.2-9,12.7-16.8,13.5c0.6-0.1,1.4-0.2,2.1-0.4c0.3-0.1,0.6-0.2,0.8-0.3
		c1-0.2,3.3-1.2,4.3-1.8c1.5-1,1.3-0.9,2.8-1.8l-2.7-0.5l-2.7,1.3c-0.3,0.2-1.7,0.6-2.1,0.7c-1.1,0.3-1.5,0.3-2.7,0.6L148.5,133.8
		L148.5,133.8z M154.8,110.7l5.4-3.9l5.3,3.1c0.2,1.3,0.4,1.9,0.6,3.3c0,0.3,0.1,1.4,0.1,2.2c0,0.2,0,0.4,0,0.5c0,0.3,0,0.5,0,0.6
		l-0.2,2l-5.7,3.4c-0.3-0.2-0.7-0.4-1.1-0.5c-0.7-0.4-1.5-0.8-2.1-1.2c-0.3-0.2-0.8-0.5-1.1-0.7l-1.3-1c0.1-1.4,0.3-3.9,0.3-5.2
		L154.8,110.7L154.8,110.7z M167.7,108.8c-0.1-0.4-0.3-0.8-0.4-1.3L167.7,108.8L167.7,108.8z M133.5,109c0.5-1,1-2,1.7-2.8l1-1.4
		l1.2-1.6c0.3-0.1,0.7-0.2,1.1-0.3c0.8-0.2,1.9-0.4,2.7-0.5l1.6-0.1l1.4,0.1c0.1,0.3,0.3,0.8,0.5,1.1c0.3,0.7,0.5,1.5,0.8,2.2
		l0.2,0.6l0.4,1.8l-4.9,6.9c-0.8,0-1.7,0.1-2.5,0.1H136c-0.3-0.6-0.6-1.2-0.9-1.8c-0.2-0.3-0.4-0.9-0.5-1.3l-0.7-1.9L133.5,109
		L133.5,109z M133.6,121.7L133.6,121.7c0.5,1.2,1.2,2.4,1.9,3.4c0.8,1.1,1.7,2.2,2.9,3.3l1.4,0.1c0.7,0,1.4,0.1,2.2,0
		c0.9-0.1,1.7-0.3,2.5-0.5l0.4-1.1l0.6-1.7l0.9-3.3l-5.3-6.2l-2.5,0.1h-2.7l-0.6,1l-0.8,1.6c-0.2,0.4-0.3,0.9-0.5,1.2
		C133.9,119.9,133.7,121,133.6,121.7L133.6,121.7z M145,128L145,128c0.6,0.8,3.1,2.4,2.5,2c-0.5-0.3,2.5,1.2,2.9,1.2
		c3.1-0.7,4.5-1.2,7.5-2.7l1.2-2.7c0.1-0.3,0.2-0.5,0.2-0.7c0.1-0.4,0.2-0.8,0.3-1.2c0.1-0.4,0.1-1,0.2-1.4l-2.1-1.1l-3.5-2.1
		l-7.4,2.6L145,128L145,128z M17.6,133.2c0.2,0.3,0.5,0.5,0.7,0.8c4.8,4.9,14.5,7.5,24.5,7.6c9.9,0.1,20.2-2.4,26.4-7.5
		c0.4-0.3,0.8-0.7,1.2-1c0.7-0.7,0.7-1.9,0-2.6c-0.7-0.7-1.9-0.7-2.6,0c-0.3,0.3-0.6,0.6-1,0.9c-5.5,4.6-14.9,6.7-24.1,6.6
		c-9.1-0.1-17.8-2.3-21.9-6.5c-0.2-0.2-0.3-0.4-0.5-0.6c-0.6-0.8-1.8-0.9-2.6-0.2C17.1,131.3,17,132.4,17.6,133.2L17.6,133.2z
		 M58.6,101.3C55,97.4,49.8,95,44,95.1c-5.9,0-11.1,2.6-14.7,6.7l12.7-38.1L58.6,101.3L58.6,101.3z M43.9,133.8
		c-3.4,0-6.5-0.9-9.3-2.5l-0.4-0.8c-0.3-0.6-0.5-1.4-0.7-2l-1.4-1.3c-0.8-0.7-2.8-3.4-3.3-4.4c-0.2-0.4-0.4-0.8-0.6-1.2l-2.8-2.3
		c-0.3-1.4-0.5-2.9-0.6-4.4l0,0c0-1.5,0.2-2.9,0.5-4.3l0,0.1l2.4-1.7l1.8-3.2l1.9-2.7l1.4-3.7c2.7-2,6-3.2,9.6-3.6l2,2
		c0.5,0.1,1,0.1,1.5,0.2c0.8,0.2,1.5,0.3,2.2,0.5c0.9,0.3,1.7,0.5,2.6,0.9l2,0.9l3.7-0.1c2.3,1.9,4.1,4.3,5.3,7l-1,3
		c0.1,1,0.4,1.9,0.6,2.9c0.1,0.3,0.1,0.8,0.1,1.1c0.1,1.3,0.1,2.9,0,4.4l1.1,1.8c-2.2,7.2-8.6,12.7-16.4,13.5
		c0.6-0.1,1.4-0.2,2.1-0.4c0.3-0.1,0.6-0.2,0.8-0.3c1-0.2,3.3-1.2,4.2-1.8c1.5-1,1.3-0.9,2.7-1.8l-2.7-0.5l-2.7,1.3
		c-0.3,0.2-1.7,0.6-2,0.7c-1.1,0.3-1.5,0.3-2.7,0.6L43.9,133.8L43.9,133.8z M49.6,110.7l5.3-3.9l5.4,3.1c0.3,1.3,0.5,1.9,0.7,3.3
		c0.1,0.3,0.1,1.4,0.2,2.2c0,0.2,0,0.4,0,0.5c0,0.3,0,0.5,0,0.6l-0.2,2l-5.6,3.4c-0.3-0.2-0.7-0.4-1.2-0.5c-0.7-0.4-1.5-0.8-2.1-1.2
		c-0.3-0.2-0.8-0.5-1.1-0.7l-1.3-1c0-1.4,0.2-3.9,0.1-5.2L49.6,110.7L49.6,110.7z M62.4,108.8c-0.1-0.4-0.3-0.8-0.5-1.3L62.4,108.8
		L62.4,108.8z M28.2,109c0.5-1,1-2,1.6-2.8l0.9-1.4l1.1-1.6c0.3-0.1,0.7-0.2,1.1-0.3c0.8-0.2,1.9-0.4,2.6-0.5l1.6-0.1l1.4,0.1
		c0.1,0.3,0.4,0.8,0.5,1.1c0.3,0.7,0.5,1.5,0.8,2.2l0.2,0.6l0.5,1.8L36,115c-0.8,0-1.7,0.1-2.5,0.1h-2.6c-0.3-0.6-0.7-1.2-1-1.8
		c-0.2-0.3-0.4-0.9-0.6-1.3l-0.8-1.9L28.2,109L28.2,109z M28.7,121.7L28.7,121.7c0.5,1.2,1.3,2.4,2,3.4c0.8,1.1,1.8,2.2,2.9,3.3
		l1.4,0.1c0.7,0,1.4,0.1,2.2,0c0.9-0.1,1.6-0.3,2.5-0.5l0.4-1.1l0.5-1.7l0.8-3.3l-5.5-6.2l-2.5,0.1h-2.7l-0.6,1l-0.8,1.6
		c-0.2,0.4-0.3,0.9-0.4,1.2C28.9,119.9,28.8,121,28.7,121.7L28.7,121.7z M40.3,128L40.3,128c0.7,0.8,3.1,2.4,2.6,2
		c-0.5-0.3,2.5,1.2,3,1.2c3.1-0.7,4.4-1.2,7.4-2.7l1.2-2.7c0.1-0.3,0.1-0.5,0.2-0.7c0.1-0.4,0.2-0.8,0.3-1.2c0.1-0.4,0.1-1,0.2-1.4
		l-2.2-1.1l-3.6-2.1l-7.3,2.6L40.3,128z"/>
	<path class="st1" d="M95,39.2L95,39.2c3.6,0,6.5,2.9,6.5,6.5V164c-4.3,1.7-8.6,1.6-13,0V45.7C88.5,42.1,91.4,39.2,95,39.2z"/>
	<path class="st1" d="M62.2,177.4c-0.5-0.9-0.2-2,0.7-2.5c0.9-0.5,2-0.2,2.5,0.7c0.8,1.5,2.3,2.8,4.3,3.9c5.7,3.3,15,5.1,24.5,5.1
		c9.4,0.1,18.9-1.5,24.7-4.9c2-1.2,3.6-2.6,4.5-4.1c0.5-0.9,1.6-1.2,2.5-0.6c0.9,0.5,1.2,1.6,0.6,2.5c-1.3,2.1-3.3,4-5.9,5.4
		c-6.4,3.7-16.6,5.5-26.6,5.4c-10-0.1-20.1-2-26.3-5.6C65.3,181.1,63.4,179.4,62.2,177.4L62.2,177.4z M73.9,167.5
		c0.3,0.3,0.6,0.6,1,1c4.4,4,11.7,6.2,19.2,6.3c7.4,0.1,15-1.8,19.8-6.2c0.3-0.3,0.7-0.7,1.1-1.1c0.7-0.7,0.6-1.9-0.1-2.6
		c-0.7-0.7-1.9-0.6-2.6,0.1c-0.2,0.3-0.5,0.5-0.8,0.8c-4,3.7-10.7,5.4-17.3,5.3c-6.6-0.1-13.1-2-16.8-5.4c-0.2-0.2-0.5-0.5-0.7-0.7
		c-0.7-0.7-1.8-0.8-2.6-0.1C73.2,165.6,73.2,166.7,73.9,167.5z"/>
</g>
</svg>
